<svg width="32" height="32" viewBox="0 0 32 32" fill="none" xmlns="http://www.w3.org/2000/svg">
<path d="M15.9998 29.3333C8.63584 29.3333 2.6665 23.364 2.6665 16C2.6665 8.63596 8.63584 2.66663 15.9998 2.66663C23.3638 2.66663 29.3332 8.63596 29.3332 16C29.3332 23.364 23.3638 29.3333 15.9998 29.3333ZM14.1625 11.22C14.0823 11.1664 13.989 11.1356 13.8926 11.1309C13.7963 11.1262 13.7005 11.1477 13.6154 11.1931C13.5303 11.2385 13.4591 11.3062 13.4094 11.3889C13.3597 11.4715 13.3333 11.5662 13.3332 11.6626V20.3373C13.3333 20.4338 13.3597 20.5284 13.4094 20.611C13.4591 20.6937 13.5303 20.7614 13.6154 20.8068C13.7005 20.8522 13.7963 20.8737 13.8926 20.869C13.989 20.8643 14.0823 20.8335 14.1625 20.78L20.6678 16.444C20.741 16.3953 20.801 16.3293 20.8425 16.2518C20.884 16.1743 20.9057 16.0878 20.9057 16C20.9057 15.9121 20.884 15.8256 20.8425 15.7481C20.801 15.6706 20.741 15.6046 20.6678 15.556L14.1625 11.22Z" fill="url(#paint0_linear_45_377)"/>
<defs>
<linearGradient id="paint0_linear_45_377" x1="2.66651" y1="16" x2="25.658" y2="9.05284" gradientUnits="userSpaceOnUse">
<stop stop-color="#FF52AF"/>
<stop offset="1" stop-color="#9F53FF"/>
</linearGradient>
</defs>
</svg>
